<svg width="115" height="82" viewBox="0 0 115 82" fill="none" xmlns="http://www.w3.org/2000/svg">
<path d="M112.272 28.5475C114.615 30.8907 114.615 34.6897 112.272 37.0328L69.7008 79.6041C67.3576 81.9472 63.5586 81.9472 61.2155 79.6041L34.4253 52.8139C32.0822 50.4708 32.0822 46.6718 34.4253 44.3286L76.9966 1.75736C79.3398 -0.585789 83.1387 -0.585784 85.4819 1.75736L112.272 28.5475Z" fill="#4A6DFF"/>
<path d="M79.6041 28.5475C81.9472 30.8907 81.9472 34.6897 79.6041 37.0328L37.0328 79.6041C34.6897 81.9472 30.8907 81.9472 28.5475 79.6041L1.75736 52.8139C-0.585788 50.4708 -0.585785 46.6718 1.75736 44.3286L44.3286 1.75736C46.6718 -0.585789 50.4708 -0.585784 52.8139 1.75736L79.6041 28.5475Z" fill="#2EB9FF"/>
</svg>
