<svg width="100" height="100" viewBox="0 0 100 100" fill="none" xmlns="http://www.w3.org/2000/svg">
<path d="M85.7974 79.6118L72.6801 66.4949L82.9899 56.1857L90.0025 63.1985L85.7974 79.6118ZM82.9899 43.8143L72.6801 33.5051L85.7974 20.3884L90.0025 36.8024L82.9899 43.8143ZM63.1992 9.99756L79.6122 14.202L66.4953 27.3197L56.186 17.0105L63.1992 9.99756ZM43.8149 17.0107L33.5054 27.3197L20.3887 14.2026L36.8021 9.99756L43.8149 17.0107ZM14.202 20.3873L27.3199 33.5055L17.011 43.8143L9.99696 36.8002L14.202 20.3873ZM17.011 56.1851L27.3199 66.494L14.202 79.6118L9.99696 63.1989L17.011 56.1851ZM36.8015 90.0025L20.3876 85.7974L33.5054 72.6798L43.8147 82.9893L36.8015 90.0025ZM60.3094 66.4945L50.0002 76.8038L39.6906 66.4945L50.0002 56.1851L60.3094 66.4945ZM66.4949 39.6903L76.8042 49.9999L66.4949 60.3091L56.1854 49.9999L66.4949 39.6903ZM43.8147 49.9999L33.5054 60.3091L23.1965 49.9999L33.5054 39.6909L43.8147 49.9999ZM39.6913 33.5055L50.0005 23.1963L60.3094 33.5051L50.0002 43.8143L39.6913 33.5055ZM56.1854 82.9893L66.4949 72.6803L79.6116 85.7974L63.1983 90.0018L56.1854 82.9893ZM92.0101 92.0098L100 60.8244L89.1755 50.0001L99.9992 39.175L92.0097 7.98936L60.8242 0L50.0005 10.8249L39.1747 0.000301394L7.98937 7.99027L0 39.1756L10.8255 49.9999L0 60.825L7.98937 92.0103L39.1753 100L50.0002 89.1746L60.8245 99.9994L92.0101 92.0098Z" fill="#111212"/>
</svg>
